<svg xmlns="http://www.w3.org/2000/svg" viewBox="0 0 128 128" width="128" height="128">
  <defs>
    <linearGradient id="mainBg" x1="0%" y1="0%" x2="100%" y2="100%">
      <stop offset="0%" style="stop-color:#1E40AF"/>
      <stop offset="100%" style="stop-color:#3B82F6"/>
    </linearGradient>
  </defs>
  <rect width="128" height="128" rx="24" fill="url(#mainBg)"/>
  <!-- Weave pattern as main visual element -->
  <g stroke="#ffffff" stroke-width="6" fill="none" stroke-linecap="round" stroke-linejoin="round">
    <path d="M20 48 Q48 28 64 48 Q80 68 108 48"/>
    <path d="M20 64 Q48 44 64 64 Q80 84 108 64"/>
    <path d="M20 80 Q48 60 64 80 Q80 100 108 80"/>
  </g>
  <g stroke="#93C5FD" stroke-width="4" fill="none" stroke-linecap="round" opacity="0.5">
    <path d="M40 20 Q32 64 40 108"/>
    <path d="M64 20 Q56 64 64 108"/>
    <path d="M88 20 Q80 64 88 108"/>
  </g>
  <!-- Center intersection -->
  <circle cx="64" cy="64" r="8" fill="#ffffff"/>
</svg>
