<svg xmlns="http://www.w3.org/2000/svg" viewBox="0 0 128 128" width="128" height="128">
  <defs>
    <linearGradient id="vscodeBg" x1="0%" y1="0%" x2="100%" y2="100%">
      <stop offset="0%" style="stop-color:#1E40AF"/>
      <stop offset="100%" style="stop-color:#3B82F6"/>
    </linearGradient>
  </defs>
  <rect width="128" height="128" rx="24" fill="url(#vscodeBg)"/>
  <g stroke="#ffffff" stroke-width="6" fill="none" stroke-linecap="round" stroke-linejoin="round">
    <path d="M20 44 Q48 24 64 44 Q80 64 108 44"/>
    <path d="M20 60 Q48 40 64 60 Q80 80 108 60"/>
    <path d="M20 76 Q48 56 64 76 Q80 96 108 76"/>
  </g>
  <g stroke="#93C5FD" stroke-width="4" fill="none" stroke-linecap="round" opacity="0.5">
    <path d="M40 16 Q32 56 40 96"/>
    <path d="M64 16 Q56 56 64 96"/>
    <path d="M88 16 Q80 56 88 96"/>
  </g>
  <circle cx="64" cy="60" r="6" fill="#ffffff"/>
  <!-- Badge: </> VS Code -->
  <rect x="20" y="100" width="88" height="20" rx="10" fill="#ffffff" opacity="0.95"/>
  <text x="30" y="114" font-family="monospace" font-size="10" font-weight="600" fill="#1E40AF">&lt;/&gt;</text>
  <text x="74" y="114" text-anchor="middle" font-family="-apple-system, BlinkMacSystemFont, sans-serif" font-size="10" font-weight="600" fill="#1E40AF">VS Code</text>
</svg>
